<svg className="fullWine" xmlns="http://www.w3.org/2000/svg" viewBox="0 0 132 268.69"><g data-name="Layer 2" stroke-miterlimit="10"><path d="M3.31 63.63a.33.33 0 0 1 .62-.07c3.21 8.88 24.82 60.77 81.57 29.24 27-15 52.25 0 40 23-12.5 23.5-29.5 37.5-60 39-30.84 1.52-76.5-28.5-62.19-91.17z" class="wine"/><g fill="none" stroke="#3a3a3a"><path d="M106.64 6.66a1.14 1.14 0 0 0 .36-.76c0-3-18.36-5.4-41-5.4S25 2.92 25 5.9a.77.77 0 0 0 0 .25"/><path d="M106.64 6.66C104.19 9.28 89.15 11.3 66 11.3c-22 0-40-2.3-41-5.15M25 6.15l.15-.27"/><path d="M25 6.15C10 32.11.5 67.16.5 88.3c0 36.7 29.33 66.5 65.5 66.5s65.5-29.8 65.5-66.5c0-21-9.89-55.59-25-81.5"/></g><ellipse cx="65" cy="258.3" rx="43.5" ry="6.5" fill="none" stroke="#3a3a3a"/><path d="M51.5 258.8s8 4 9-6 1-98 1-98M68.5 154.8l2.9 95.67a8.6 8.6 0 0 0 4.74 7.53 7.76 7.76 0 0 0 3.36.78" fill="none" stroke="#3a3a3a"/><path d="M21.5 258.8s-3 4 2 6c4.71 1.89 59.2 6.44 80.51.25a6.53 6.53 0 0 0 4.74-5.84c.06-1.1-.24-1.41-.24-1.41" fill="none" stroke="#3a3a3a"/></g></svg>
